<?xml version="1.0" encoding="utf-8"?>
<!-- Generator: Adobe Illustrator 21.0.0, SVG Export Plug-In . SVG Version: 6.00 Build 0)  -->
<svg version="1.1" id="AZUL_1_" xmlns="http://www.w3.org/2000/svg" xmlns:xlink="http://www.w3.org/1999/xlink" x="0px" y="0px"
	 viewBox="0 0 283.7 283.7" style="enable-background:new 0 0 283.7 283.7;" xml:space="preserve">
<style type="text/css">
	.st0{fill:#FEFEFE;}
	.st1{fill:#6B5CCA;}
	.st2{fill:#1F07AF;}
	.st3{fill:#3B27B9;}
	.st4{fill:#1800AC;}
	.st5{fill:#1901AD;}
	.st6{fill:#1800AD;}
	.st7{font-family:'AltoneTrial-Regular';}
	.st8{font-size:7px;}
	.st9{letter-spacing:4;}
</style>
<g id="TAG_xA0_Imagen_1_">
	<g>
		<g>
			<path class="st0" d="M65.3,109.2c0.2-0.3-0.5-1,0.5-1c0.6,0,1.1,0,1.7,0c40.2,0,80.5,0,120.7,0c0.2,0.2,0.3,0.4,0.3,0.7
				c0.6,2.9,0.3,5.7,0.3,8.6c0,1.6,0.2,2.2,2.1,2.2c4.3,0.1,8.3,1.2,10.1,5.8c0.4,0.9,1.2,1.2,2.1,1.3c3.5,0,7,0,10.6,0
				c1.6,0,2.1-0.7,1.9-2.3c-0.8-5.5-4.2-9.2-8.7-12c-2.3-1.4-4.9-2.4-7.6-2.9c-0.9-0.2-1.9-0.2-2.7-0.8c-0.2-0.2-0.2-0.4-0.1-0.7
				c6.6,0,13.3,0,19.9,0c1,0,1.2,0.2,1.2,1.2c0,17.1-0.1,34.2,0,51.4c0,1.7-1,1.2-1.7,1.2c-20.3,0-40.6,0-61,0
				c-29.2,0-58.4,0-87.6,0c-1.6,0-2-0.3-2-2c0.1-12.8,0-25.6,0-38.4c0.2-0.2,0.5-0.4,0.8-0.5c4.6-0.6,9.3-0.2,13.9-0.2
				c1.8,0,2.7,1.2,2.8,2.9c0.1,1,0.1,1.9,0.1,2.9c0,9.6,0,19.2,0,28.8c0,3.5,0.2,3.7,3.7,3.7c2.6,0,5.1,0,7.7,0
				c3.2,0,3.4-0.2,3.4-3.4c0-7.8,0-15.5,0-23.3c0-6.6,0-13.1,0-19.7c0-2.8-0.2-3-3-3c-8.5,0-17,0-25.4,0c-1,0-2.1,0.1-3.1-0.3
				C65.8,109.6,65.5,109.4,65.3,109.2z"/>
			<path class="st1" d="M65.8,121.6c-0.2,0-0.3,0-0.5,0c0-4.2,0-8.3,0-12.5c0.2,0,0.3,0.1,0.5,0.1c0.5,0.5,0.7,1.1,0.6,1.7
				C66.3,114.6,67.3,118.2,65.8,121.6z"/>
			<path class="st2" d="M188.2,108.7c0-0.2,0-0.3,0-0.5c1.9,0,3.8,0,5.8,0c0.1,0.3,0.1,0.6-0.2,0.8
				C191.8,109.6,190,109.8,188.2,108.7z"/>
			<path class="st3" d="M193.9,108.7c0-0.2,0-0.3,0-0.5c0.8,0,1.6,0,2.4,0c0.1,0.1,0.2,0.2,0.2,0.4
				C195.7,109.5,194.8,109.4,193.9,108.7z"/>
			<path class="st4" d="M65.8,121.6c0-4.1,0-8.2,0-12.4c10.3,0,20.6,0,30.9-0.1c1.3,0,1.6,0.4,1.6,1.7c0,15.8,0,31.7,0,47.5
				c0,1.2-0.2,1.8-1.6,1.7c-4.3-0.1-8.6-0.1-12.9,0c-1.8,0-1.6-1.1-1.6-2.2c0-11-0.1-22.1,0.1-33.1c0-2.5-0.8-3.1-3.1-3
				C74.7,121.9,70.3,121.7,65.8,121.6z"/>
			<path class="st4" d="M179.4,125c0,4.2-0.1,8.5,0,12.7c0.2,7,4.2,10.8,11.2,10.9c4.2,0.1,4.2,0.1,5.7,4c0.6,1.6,1.3,3.3,2,4.8
				c0.6,1.2,0.4,2-0.9,2.3c-8.7,2-17.3,2.1-25.2-2.8c-5.8-3.5-8.3-9.2-9.2-15.8c-1-7.3-0.8-14.5,2.7-21.2c2.6-5,6.8-8.1,12-10.1
				c1.5-0.6,1.6,0.2,1.6,1.3C179.4,115.9,179.4,120.4,179.4,125C179.4,125,179.4,125,179.4,125z"/>
			<path class="st4" d="M116.6,160.1c-2.2,0-4.3,0-6.5,0c-1.4,0-1.9-0.2-1.3-1.7c5.8-15.8,11.6-31.6,17.3-47.4
				c0.5-1.4,1.2-2,2.8-1.9c3,0.1,6.1,0.1,9.1,0c1.6,0,2.2,0.1,1.6,2c-4.7,15.6-9.3,31.2-13.8,46.8c-0.5,1.6-1.1,2.4-2.9,2.3
				C120.7,159.9,118.6,160.1,116.6,160.1z"/>
			<path class="st4" d="M155.7,160.1c-2.3,0-4.6,0-7,0c-1.1,0-1.6-0.3-1.9-1.5c-1.7-5.7-1.8-5.7-7.9-5.7c-3.1,0-3.1,0-2.2-2.9
				c0.7-2,1.3-4.1,1.9-6.2c0.3-1.3,0.5-2.6,2.3-2.4c0.6,0.1,0.9-0.4,0.6-1c-1.5-2.5-0.4-5,0.2-7.4c1.7-5.8,3.5-11.6,5.2-17.3
				c0.1-0.4,0-1.1,0.7-1.1c0.6,0,0.6,0.6,0.8,1c5.2,14.2,10.4,28.5,15.6,42.7c0.5,1.4,0.2,1.9-1.3,1.8
				C160.3,160,158,160.1,155.7,160.1z"/>
			<path class="st4" d="M216.4,145.9c0,4.1-0.1,8.2,0,12.2c0,1.4-0.3,1.9-1.9,2c-6.7,0.1-6.7,0.2-9.1-6c-1.4-3.6-2.8-7.1-4.1-10.6
				c-0.4-1.2-1.1-1.8-2.5-1.7c-2.7,0.1-5.4,0-8.1,0.1c-1.2,0-1.7-0.4-1.6-1.6c0.1-2.3,0.1-4.6,0-7c-0.1-1.3,0.4-1.7,1.6-1.6
				c8,0,16,0,24,0c1.4,0,1.7,0.5,1.7,1.8C216.4,137.6,216.4,141.8,216.4,145.9z"/>
			<path class="st4" d="M193.9,108.7c0.8,0,1.7-0.1,2.5-0.1c5.3,0.8,10.2,2.4,14.3,6.1c3.5,3,5,6.9,5.6,11.3c0.1,1-0.2,1.5-1.3,1.5
				c-4.4,0-8.8,0-13.2,0c-0.8,0-1-0.3-1.3-1.1c-1.7-4.3-5.7-6.6-10.5-5.9c-1.9,0.3-2.2-0.3-2.1-1.9c0.2-3.3-0.2-6.5,0.2-9.8
				C190.1,108.7,192,108.7,193.9,108.7z"/>
			<path class="st5" d="M115.2,115.7c0,0.2,0,0.5,0,0.7c0,6.1-0.5,6.5-6.8,5.7c-1-0.1-1.4-0.5-1.4-1.5c0-3.3,0-6.7,0-10
				c0-1.1,0.4-1.4,1.4-1.3c0.1,0,0.2,0,0.2,0C115.2,108.9,115.2,108.9,115.2,115.7z"/>
		</g>
	</g>
</g>
<g id="ESTUDIO_CREATIVO">
	<text transform="matrix(1 0 0 1 80.5202 172.5597)" class="st6 st7 st8 st9">ESTUDIO CREATIVO</text>
</g>
</svg>
